<?xml version="1.0" encoding="UTF-8"?>
<svg width="300px" height="180px" viewBox="0 0 300 180" version="1.1" xmlns="http://www.w3.org/2000/svg">
    <g id="Screen-Copy-2" stroke="none" stroke-width="1" fill="none" fill-rule="evenodd">
        <g id="Group-2-Copy" transform="translate(17.000000, 64.000000)" fill="#0066CC">
            <rect id="Rectangle" x="59" y="0" width="125" height="4" rx="2"></rect>
            <rect id="Rectangle-Copy-4" x="0" y="26" width="125" height="4" rx="2"></rect>
            <rect id="Rectangle-Copy-2" x="194" y="0" width="20" height="4" rx="2"></rect>
            <rect id="Rectangle-Copy-3" x="222" y="0" width="51" height="4" rx="2"></rect>
            <rect id="Rectangle-Copy-5" x="184" y="44" width="71" height="4" rx="2"></rect>
            <rect id="Rectangle-Copy-8" x="99" y="44" width="71" height="4" rx="2"></rect>
            <rect id="Rectangle-Copy-9" x="47" y="44" width="36" height="4" rx="2"></rect>
            <rect id="Rectangle-Copy-6" x="131" y="26" width="78" height="4" rx="2"></rect>
        </g>
        <g id="Group-2-Copy" opacity="0.123070126" transform="translate(10.000000, 68.000000)" fill="#0066CC">
            <rect id="Rectangle" x="59" y="0" width="125" height="4" rx="2"></rect>
            <rect id="Rectangle-Copy-4" x="0" y="26" width="125" height="4" rx="2"></rect>
            <rect id="Rectangle-Copy-2" x="194" y="0" width="20" height="4" rx="2"></rect>
            <rect id="Rectangle-Copy-3" x="222" y="0" width="51" height="4" rx="2"></rect>
            <rect id="Rectangle-Copy-5" x="184" y="44" width="71" height="4" rx="2"></rect>
            <rect id="Rectangle-Copy-8" x="99" y="44" width="71" height="4" rx="2"></rect>
            <rect id="Rectangle-Copy-9" x="47" y="44" width="36" height="4" rx="2"></rect>
            <rect id="Rectangle-Copy-6" x="131" y="26" width="78" height="4" rx="2"></rect>
        </g>
    </g>
</svg>
