<?xml version="1.0" encoding="UTF-8"?>
<svg width="300px" height="180px" viewBox="0 0 300 180" version="1.1" xmlns="http://www.w3.org/2000/svg">
    <g id="Screen-Copy" stroke="none" stroke-width="1" fill="none" fill-rule="evenodd">
        <g id="Group-2" transform="translate(17.000000, 17.000000)" fill="#0066CC">
            <rect id="Rectangle" x="59" y="111" width="125" height="4" rx="2"></rect>
            <rect id="Rectangle-Copy-4" x="0" y="137" width="125" height="4" rx="2"></rect>
            <rect id="Rectangle-Copy-2" x="194" y="111" width="20" height="4" rx="2"></rect>
            <rect id="Rectangle-Copy-3" x="222" y="111" width="51" height="4" rx="2"></rect>
            <rect id="Rectangle-Copy-5" x="54" y="15" width="71" height="4" rx="2"></rect>
            <rect id="Rectangle-Copy-8" x="79" y="40" width="71" height="4" rx="2"></rect>
            <rect id="Rectangle-Copy-9" x="108" y="50" width="36" height="4" rx="2"></rect>
            <rect id="Rectangle-Copy-7" x="50" y="0" width="100" height="4" rx="2"></rect>
            <rect id="Rectangle-Copy-6" x="131" y="137" width="78" height="4" rx="2"></rect>
        </g>
        <g id="Group-2" opacity="0.123070126" transform="translate(10.000000, 21.000000)" fill="#0066CC">
            <rect id="Rectangle" x="59" y="111" width="125" height="4" rx="2"></rect>
            <rect id="Rectangle-Copy-4" x="0" y="137" width="125" height="4" rx="2"></rect>
            <rect id="Rectangle-Copy-2" x="194" y="111" width="20" height="4" rx="2"></rect>
            <rect id="Rectangle-Copy-3" x="222" y="111" width="51" height="4" rx="2"></rect>
            <rect id="Rectangle-Copy-5" x="54" y="15" width="71" height="4" rx="2"></rect>
            <rect id="Rectangle-Copy-8" x="79" y="40" width="71" height="4" rx="2"></rect>
            <rect id="Rectangle-Copy-9" x="108" y="50" width="36" height="4" rx="2"></rect>
            <rect id="Rectangle-Copy-7" x="50" y="0" width="100" height="4" rx="2"></rect>
            <rect id="Rectangle-Copy-6" x="131" y="137" width="78" height="4" rx="2"></rect>
        </g>
    </g>
</svg>
