<svg xmlns="http://www.w3.org/2000/svg"
     version="1.1" x="0px" y="0px"
     viewBox="0 0 64 64" style="enable-background:new 0 0 64 64;"
     xml:space="preserve">
    <g fill="#FFF"><path d="M3,52h24c0.552,0,1-0.447,1-1V16c0-0.251-0.095-0.493-0.265-0.679l-12-13c-0.379-0.41-1.091-0.41-1.47,0l-12,13  C2.095,15.507,2,15.749,2,16v35C2,51.553,2.448,52,3,52z M4,16.391L15,4.475l11,11.916V50H4V16.391z"/>
        <path d="M15,18c2.206,0,4-1.794,4-4s-1.794-4-4-4s-4,1.794-4,4S12.794,18,15,18z M15,12c1.103,0,2,0.897,2,2s-0.897,2-2,2  s-2-0.897-2-2S13.897,12,15,12z"/>
        <path d="M23,22H7c-0.552,0-1,0.447-1,1v22c0,0.553,0.448,1,1,1h16c0.552,0,1-0.447,1-1V23C24,22.447,23.552,22,23,22z M22,44H8V24  h14V44z"/>
        <rect x="18" y="40" width="2" height="2"/>
        <rect x="14" y="40" width="2" height="2"/>
        <rect x="10" y="40" width="2" height="2"/>
        <path d="M46,19.531c-5.514,0-10,4.486-10,10s4.486,10,10,10s10-4.486,10-10S51.514,19.531,46,19.531z M46,37.531  c-4.411,0-8-3.589-8-8s3.589-8,8-8s8,3.589,8,8S50.411,37.531,46,37.531z"/>
        <path d="M51.151,26.363l-2.928-0.448l-1.318-2.809c-0.165-0.351-0.518-0.575-0.905-0.575s-0.741,0.225-0.905,0.575l-1.318,2.809  l-2.928,0.448c-0.37,0.057-0.678,0.315-0.797,0.671s-0.029,0.747,0.232,1.016l2.147,2.201l-0.509,3.119  c-0.062,0.378,0.098,0.758,0.411,0.979c0.314,0.221,0.724,0.244,1.06,0.058L46,32.966l2.606,1.44  c0.151,0.084,0.318,0.125,0.484,0.125c0.202,0,0.404-0.062,0.576-0.183c0.313-0.221,0.473-0.601,0.411-0.979l-0.509-3.119  l2.147-2.201c0.262-0.269,0.352-0.66,0.232-1.016S51.521,26.42,51.151,26.363z M47.784,29.216c-0.222,0.228-0.322,0.546-0.271,0.859  l0.258,1.585l-1.288-0.712c-0.151-0.083-0.317-0.125-0.484-0.125s-0.333,0.042-0.484,0.125l-1.288,0.712l0.258-1.585  c0.051-0.313-0.049-0.632-0.271-0.859l-1.141-1.17l1.532-0.234c0.33-0.05,0.612-0.262,0.754-0.563L46,25.885l0.64,1.363  c0.142,0.302,0.424,0.514,0.754,0.563l1.532,0.234L47.784,29.216z"/>
        <path d="M59.135,38.103l0.087-4.54l2.598-3.725c0.24-0.344,0.24-0.801,0-1.145l-2.598-3.724l-0.087-4.54  c-0.008-0.419-0.277-0.788-0.673-0.926l-4.291-1.485l-2.738-3.622c-0.253-0.334-0.689-0.477-1.089-0.354L46,15.364l-4.344-1.321  c-0.4-0.123-0.835,0.02-1.089,0.354l-2.738,3.622l-4.291,1.485c-0.396,0.138-0.665,0.507-0.673,0.926l-0.087,4.54l-2.598,3.724  c-0.24,0.344-0.24,0.801,0,1.145l2.598,3.725l0.087,4.54c0.008,0.419,0.277,0.788,0.673,0.926l3.955,1.369  c-1.02,6.319-3.807,12.502-7.2,15.895c-0.336,0.336-0.389,0.861-0.128,1.258c0.261,0.396,0.764,0.551,1.207,0.378l3.35-1.34  l-0.708,4.247c-0.075,0.449,0.163,0.892,0.579,1.077C34.724,61.972,34.863,62,35,62c0.297,0,0.588-0.133,0.782-0.376l2.918-3.659  c3.328-4.152,5.373-9.118,5.962-14.39L46,43.168l1.337,0.406c0.589,5.271,2.634,10.238,5.961,14.39l2.92,3.66  C56.413,61.867,56.703,62,57,62c0.137,0,0.275-0.028,0.407-0.087c0.416-0.186,0.654-0.628,0.579-1.077l-0.708-4.247l3.35,1.34  c0.442,0.175,0.945,0.018,1.207-0.378c0.261-0.396,0.208-0.922-0.128-1.258c-3.936-3.936-6.283-10.863-7.171-15.906l3.926-1.359  C58.858,38.891,59.127,38.521,59.135,38.103z M37.138,56.716l-0.519,0.65l0.367-2.202c0.06-0.355-0.078-0.717-0.359-0.943  s-0.662-0.282-0.999-0.149l-1.414,0.565c2.529-3.74,4.13-8.346,4.957-12.347l1.395,1.845c0.252,0.334,0.687,0.477,1.088,0.354  l0.911-0.277C41.901,48.785,40.049,53.085,37.138,56.716z M56.372,54.071c-0.335-0.133-0.716-0.077-0.999,0.149  c-0.281,0.227-0.419,0.587-0.359,0.943l0.367,2.202l-0.521-0.651c-2.91-3.631-4.762-7.931-5.427-12.503l0.911,0.277  c0.096,0.029,0.194,0.043,0.291,0.043c0.308,0,0.605-0.143,0.797-0.396l1.436-1.899c0.861,3.964,2.491,8.685,4.967,12.421  L56.372,54.071z M57.228,33.22l-0.079,4.146l-3.919,1.356c-0.187,0.065-0.351,0.185-0.47,0.342l-2.501,3.308l-3.968-1.206  c-0.095-0.028-0.192-0.043-0.291-0.043s-0.196,0.015-0.291,0.043l-3.968,1.206l-2.501-3.308c-0.119-0.157-0.283-0.276-0.47-0.342  l-3.919-1.356l-0.079-4.146c-0.004-0.197-0.066-0.391-0.18-0.553l-2.373-3.401l2.373-3.4c0.113-0.162,0.176-0.355,0.18-0.553  l0.079-4.146l3.919-1.356c0.187-0.065,0.351-0.185,0.471-0.342l2.501-3.308l3.967,1.206c0.189,0.057,0.393,0.057,0.582,0  l3.967-1.206l2.501,3.308c0.12,0.157,0.284,0.276,0.471,0.342l3.919,1.356l0.079,4.146c0.004,0.197,0.066,0.391,0.18,0.553  l2.373,3.4l-2.373,3.401C57.294,32.829,57.232,33.022,57.228,33.22z"/>
        <rect x="58" y="2" width="2" height="2"/>
        <rect x="58" y="6" width="2" height="2"/>
        <rect x="60" y="4" width="2" height="2"/>
        <rect x="56" y="4" width="2" height="2"/></g>
</svg>
