<svg xmlns="http://www.w3.org/2000/svg"
     version="1.1" x="0px" y="0px"
     viewBox="0 0 100 100" style="enable-background:new 0 0 100 100;"
     xml:space="preserve"><g fill="#FFF"><path d="M5273.1,2400.1v-2c0-2.8-5-4-9.7-4s-9.7,1.3-9.7,4v2c0,1.8,0.7,3.6,2,4.9l5,4.9c0.3,0.3,0.4,0.6,0.4,1v6.4     c0,0.4,0.2,0.7,0.6,0.8l2.9,0.9c0.5,0.1,1-0.2,1-0.8v-7.2c0-0.4,0.2-0.7,0.4-1l5.1-5C5272.4,2403.7,5273.1,2401.9,5273.1,2400.1z      M5263.4,2400c-4.8,0-7.4-1.3-7.5-1.8v0c0.1-0.5,2.7-1.8,7.5-1.8c4.8,0,7.3,1.3,7.5,1.8C5270.7,2398.7,5268.2,2400,5263.4,2400z"/><path
        d="M5268.4,2410.3c-0.6,0-1,0.4-1,1c0,0.6,0.4,1,1,1h4.3c0.6,0,1-0.4,1-1c0-0.6-0.4-1-1-1H5268.4z"/><path
        d="M5272.7,2413.7h-4.3c-0.6,0-1,0.4-1,1c0,0.6,0.4,1,1,1h4.3c0.6,0,1-0.4,1-1C5273.7,2414.1,5273.3,2413.7,5272.7,2413.7z"/><path
        d="M5272.7,2417h-4.3c-0.6,0-1,0.4-1,1c0,0.6,0.4,1,1,1h4.3c0.6,0,1-0.4,1-1C5273.7,2417.5,5273.3,2417,5272.7,2417z"/></g>
    <g fill="#FFF"><path d="M61.4,71.4l-9.1-5.3V55.5c0-1.2-1-2.2-2.2-2.2s-2.2,1-2.2,2.2v10.6l-9.1,5.3c-1.1,0.6-1.4,2-0.8,3     c0.4,0.7,1.2,1.1,1.9,1.1c0.4,0,0.8-0.1,1.1-0.3l9.1-5.3l9.1,5.3c0.3,0.2,0.7,0.3,1.1,0.3c0.8,0,1.5-0.4,1.9-1.1     C62.8,73.3,62.4,72,61.4,71.4z"/>
        <path d="M65.4,37.5c-0.6-4.4-3.5-7.9-7.4-9.6c2-2.1,3.3-4.9,3.3-8c0-6.3-5.1-11.4-11.4-11.4s-11.4,5.1-11.4,11.4     c0,3.1,1.3,5.9,3.3,8c-3.9,1.7-6.8,5.2-7.4,9.6l-0.7,4.9c-0.2,1.2,0.2,2.5,1,3.4c0.8,0.9,2,1.5,3.3,1.5l23.6,0     c1.3,0,2.5-0.5,3.3-1.5c0.8-0.9,1.2-2.2,1-3.4L65.4,37.5z M50,12.9c3.8,0,7,3.1,7,7c0,3.8-3.1,7-7,7s-7-3.1-7-7     C43,16,46.2,12.9,50,12.9z M38.3,42.9l0.7-4.9c0.5-3.9,3.9-6.8,7.8-6.8h6.4c3.9,0,7.3,2.9,7.8,6.8l0.7,4.8L38.3,42.9z"/>
        <path d="M26.7,72.1c2-2.1,3.3-4.9,3.3-8c0-6.3-5.1-11.4-11.4-11.4S7.3,57.8,7.3,64.1c0,3.1,1.3,5.9,3.3,8     c-3.9,1.7-6.8,5.2-7.4,9.6l-0.7,4.9c-0.2,1.2,0.2,2.5,1,3.4s2,1.5,3.3,1.5l23.6,0c1.3,0,2.5-0.5,3.3-1.5c0.8-0.9,1.2-2.2,1-3.4     l-0.7-4.9C33.5,77.4,30.6,73.8,26.7,72.1z M18.6,57.2c3.8,0,7,3.1,7,7c0,3.8-3.1,7-7,7s-7-3.1-7-7C11.7,60.3,14.8,57.2,18.6,57.2     z M6.9,87.2l0.7-4.9c0.5-3.9,3.9-6.8,7.8-6.8h6.4c3.9,0,7.3,2.9,7.8,6.8l0.7,4.8L6.9,87.2z"/>
        <path d="M96.8,81.7c-0.6-4.4-3.5-7.9-7.4-9.6c2-2.1,3.3-4.9,3.3-8c0-6.3-5.1-11.4-11.4-11.4c-6.3,0-11.4,5.1-11.4,11.4     c0,3.1,1.3,5.9,3.3,8c-3.9,1.7-6.8,5.2-7.4,9.6l-0.7,4.9c-0.2,1.2,0.2,2.5,1,3.4c0.8,0.9,2,1.5,3.3,1.5l23.6,0     c1.3,0,2.5-0.5,3.3-1.5c0.8-0.9,1.2-2.2,1-3.4L96.8,81.7z M81.4,57.2c3.8,0,7,3.1,7,7c0,3.8-3.1,7-7,7c-3.8,0-7-3.1-7-7     C74.4,60.3,77.5,57.2,81.4,57.2z M69.6,87.2l0.7-4.9c0.5-3.9,3.9-6.8,7.8-6.8h6.4c3.9,0,7.3,2.9,7.8,6.8l0.7,4.8L69.6,87.2z"/></g>
</svg>
