<svg xmlns="http://www.w3.org/2000/svg"
     version="1.1" x="0px" y="0px"
     viewBox="0 0 100 100"
     xml:space="preserve"><g fill="#FFF"><path d="M33,15.8c2.5-0.9,4.3-3.3,4.3-6.1c0-3.6-2.9-6.5-6.5-6.5s-6.5,2.9-6.5,6.5c0,2.8,1.8,5.2,4.3,6.1v11l9.6,8.1v30.2l-9.6,8.1   v11c-2.5,0.9-4.3,3.3-4.3,6.1c0,3.6,2.9,6.5,6.5,6.5s6.5-2.9,6.5-6.5c0-2.8-1.8-5.2-4.3-6.1v-9l9.6-8.1V32.9L33,24.8V15.8z    M30.8,92.4c-1.2,0-2.1-0.9-2.1-2.1s0.9-2.1,2.1-2.1c1.2,0,2.1,0.9,2.1,2.1S32,92.4,30.8,92.4z M30.8,7.6c1.2,0,2.1,0.9,2.1,2.1   s-0.9,2.1-2.1,2.1c-1.2,0-2.1-0.9-2.1-2.1S29.7,7.6,30.8,7.6z"/><path
        d="M71.4,84.2v-11l-9.6-8.1V34.9l9.6-8.1v-11c2.5-0.9,4.3-3.3,4.3-6.1c0-3.6-2.9-6.5-6.5-6.5s-6.5,2.9-6.5,6.5   c0,2.8,1.8,5.2,4.3,6.1v9l-9.6,8.1v34.3l9.6,8.1v9c-2.5,0.9-4.3,3.3-4.3,6.1c0,3.6,2.9,6.5,6.5,6.5s6.5-2.9,6.5-6.5   C75.7,87.5,73.9,85.1,71.4,84.2z M69.2,7.6c1.2,0,2.1,0.9,2.1,2.1s-0.9,2.1-2.1,2.1s-2.1-0.9-2.1-2.1S68,7.6,69.2,7.6z M69.2,92.4   c-1.2,0-2.1-0.9-2.1-2.1s0.9-2.1,2.1-2.1s2.1,0.9,2.1,2.1S70.3,92.4,69.2,92.4z"/><path
        d="M78.8,59.6c-1.1,0-2.2,0.3-3.1,0.8L71.4,57V43l4.3-3.4c0.9,0.5,2,0.8,3.1,0.8c3.6,0,6.5-2.9,6.5-6.5c0-3.6-2.9-6.5-6.5-6.5   s-6.5,2.9-6.5,6.5c0,0.9,0.2,1.7,0.5,2.4L67,40.9v18.2l5.8,4.6c-0.3,0.7-0.5,1.6-0.5,2.4c0,3.6,2.9,6.5,6.5,6.5s6.5-2.9,6.5-6.5   C85.3,62.5,82.3,59.6,78.8,59.6z M78.8,31.8c1.2,0,2.1,0.9,2.1,2.1c0,1.2-0.9,2.1-2.1,2.1s-2.1-0.9-2.1-2.1   C76.7,32.7,77.6,31.8,78.8,31.8z M78.8,68.2c-1.2,0-2.1-0.9-2.1-2.1s0.9-2.1,2.1-2.1s2.1,0.9,2.1,2.1S79.9,68.2,78.8,68.2z"/><path
        d="M27.7,66.1c0-0.9-0.2-1.7-0.5-2.4l5.8-4.6V40.9l-5.8-4.6c0.3-0.7,0.5-1.6,0.5-2.4c0-3.6-2.9-6.5-6.5-6.5s-6.5,2.9-6.5,6.5   c0,3.6,2.9,6.5,6.5,6.5c1.1,0,2.2-0.3,3.1-0.8l4.3,3.4v14l-4.3,3.4c-0.9-0.5-2-0.8-3.1-0.8c-3.6,0-6.5,2.9-6.5,6.5   c0,3.6,2.9,6.5,6.5,6.5S27.7,69.7,27.7,66.1z M19.1,33.9c0-1.2,0.9-2.1,2.1-2.1c1.2,0,2.1,0.9,2.1,2.1c0,1.2-0.9,2.1-2.1,2.1   C20.1,36,19.1,35,19.1,33.9z M21.2,68.2c-1.2,0-2.1-0.9-2.1-2.1s0.9-2.1,2.1-2.1c1.2,0,2.1,0.9,2.1,2.1S22.4,68.2,21.2,68.2z"/><path
        d="M56.5,25.8c0-3.6-2.9-6.5-6.5-6.5c-3.6,0-6.5,2.9-6.5,6.5c0,2.8,1.8,5.2,4.3,6.1v36.1c-2.5,0.9-4.3,3.3-4.3,6.1   c0,3.6,2.9,6.5,6.5,6.5c3.6,0,6.5-2.9,6.5-6.5c0-2.8-1.8-5.2-4.3-6.1V31.9C54.7,31,56.5,28.6,56.5,25.8z M50,23.8   c1.2,0,2.1,0.9,2.1,2.1s-0.9,2.1-2.1,2.1c-1.2,0-2.1-0.9-2.1-2.1S48.9,23.8,50,23.8z M50,76.2c-1.2,0-2.1-0.9-2.1-2.1   s0.9-2.1,2.1-2.1c1.2,0,2.1,0.9,2.1,2.1S51.2,76.2,50,76.2z"/></g>
</svg>
