<?xml version="1.0" encoding="UTF-8"?>
<svg width="292px" height="155px" viewBox="0 0 292 155" version="1.1" xmlns="http://www.w3.org/2000/svg" xmlns:xlink="http://www.w3.org/1999/xlink">
    <title>Logo del Ministro per l'innovazione tecnologica e la digitalizzazione</title>
    <g stroke="none" stroke-width="1" fill="none" fill-rule="evenodd">
        <g transform="translate(-752.000000, -270.000000)">
            <g transform="translate(752.491000, 270.465000)">
                <polygon fill="#FFFFFF" points="0 153.6 290.766 153.6 290.766 0 0 0"></polygon>
                <polygon fill="#FFFFFF" points="-5.68434189e-14 153.6 153.6 153.6 153.6 0 -5.68434189e-14 0"></polygon>
                <path fill="#0066CC" d="M24.1478,55.9603 C21.3298,55.9603 19.0088,56.8893 17.1998,58.7593 C15.3908,60.6353 14.4828,62.9753 14.4828,65.7953 C14.4828,68.6163 15.4028,70.9773 17.2248,72.8803 C19.0428,74.7813 21.3598,75.7343 24.1718,75.7343 C26.9778,75.7343 29.2618,74.7993 31.0278,72.9353 C32.7828,71.0623 33.6718,68.7293 33.6718,65.9173 C33.6718,63.1093 32.7828,60.7453 31.0278,58.8353 C29.2618,56.9163 26.9678,55.9603 24.1478,55.9603"></path>
                <polygon fill="#0066CC" points="46.9867 117.4339 46.9867 35.8339 75.2197 35.8339 89.6357 95.3539 104.0517 35.8339 132.2837 35.8339 132.2837 117.4339 115.7047 117.4339 115.7047 54.3149 113.9027 54.3149 97.9247 113.8339 81.3457 113.8339 65.3677 54.3149 63.5657 54.3149 63.5657 117.4339"></polygon>
                <polygon fill="#0066CC" points="153.065 117.434 169.644 117.434 169.644 35.834 153.065 35.834"></polygon>
                <path fill="#0066CC" d="M217.9378,117.4339 L190.4258,117.4339 L190.4258,35.8339 L217.9378,35.8339 C224.9848,35.8339 230.7928,36.5749 235.3568,38.0529 C239.9218,39.5359 243.4658,41.9749 245.9898,45.3729 C248.5118,48.7759 250.2538,52.7739 251.2148,57.3729 C252.1758,61.9749 252.6568,67.9549 252.6568,75.3149 C252.6568,82.6759 252.2148,88.7739 251.3358,93.6139 C250.4538,98.4549 248.7918,102.7759 246.3498,106.5749 C243.9058,110.3749 240.3618,113.1349 235.7178,114.8539 C231.0718,116.5749 225.1458,117.4339 217.9378,117.4339 M235.3568,85.0339 C235.5168,82.4749 235.5968,78.9339 235.5968,74.4139 C235.5968,69.8949 235.4358,66.2739 235.1168,63.5529 C234.7958,60.8339 234.0358,58.3539 232.8348,56.1139 C231.6328,53.8749 229.8498,52.3339 227.4888,51.4949 C225.1258,50.6549 221.9418,50.2349 217.9378,50.2349 L207.0048,50.2349 L207.0048,103.0339 L217.9378,103.0339 C223.9448,103.0339 228.3088,101.5159 231.0328,98.4729 C233.3538,95.9949 234.7958,91.5139 235.3568,85.0339"></path>
            </g>
        </g>
    </g>
</svg>
