<svg id="Layer_1" data-name="Layer 1" xmlns="http://www.w3.org/2000/svg" viewBox="0 0 178.13 76.8"><defs><style>.cls-1{fill:#fff;}</style></defs><title>Logo-MITD_MARCHIO_RGB_bianco-bucato</title><path class="cls-1" d="M0,0V76.8H178.13V0ZM21.42,36.47A4.51,4.51,0,0,1,18,37.87a4.61,4.61,0,0,1-3.47-1.43,4.92,4.92,0,0,1-1.37-3.54,4.85,4.85,0,0,1,1.36-3.52A4.59,4.59,0,0,1,18,28a4.45,4.45,0,0,1,3.44,1.44A5,5,0,0,1,22.74,33,4.94,4.94,0,0,1,21.42,36.47ZM72,58.71H63.75V27.15h-.9l-8,29.76H46.59l-8-29.76h-.9V58.71H29.43V17.91h14.1l7.2,29.76,7.2-29.76H72Zm18.6,0H82.35V17.91h8.28Zm36.66-33.48h-10.8V58.71h-8.28V25.23H97.29V17.91h30ZM164.37,46.8a17.73,17.73,0,0,1-2.49,6.48,10.37,10.37,0,0,1-5.31,4.14,25.89,25.89,0,0,1-8.88,1.29H134V17.91h13.74a28.68,28.68,0,0,1,8.7,1.11,10.37,10.37,0,0,1,5.31,3.66,15.12,15.12,0,0,1,2.61,6,45.38,45.38,0,0,1,.72,9A52.55,52.55,0,0,1,164.37,46.8Zm-9.24-18.75a4.74,4.74,0,0,0-2.67-2.31,14.63,14.63,0,0,0-4.77-.63h-5.46v26.4h5.46q4.5,0,6.54-2.28,1.74-1.86,2.16-6.72.12-1.92.12-5.31a48.63,48.63,0,0,0-.24-5.43A10.37,10.37,0,0,0,155.13,28.05Z"/></svg>