<?xml version="1.0" standalone="no"?>
<!DOCTYPE svg PUBLIC "-//W3C//DTD SVG 20010904//EN"
 "http://www.w3.org/TR/2001/REC-SVG-20010904/DTD/svg10.dtd">
<svg version="1.0" xmlns="http://www.w3.org/2000/svg"
 width="700.000000pt" height="700.000000pt" viewBox="0 0 700.000000 700.000000"
 preserveAspectRatio="xMidYMid meet">
<metadata>
Created by potrace 1.14, written by Peter Selinger 2001-2017
</metadata>
<g transform="translate(0.000000,700.000000) scale(0.100000,-0.100000)"
fill="#000000" stroke="none">
<path d="M0 3500 l0 -3500 3500 0 3500 0 0 3500 0 3500 -3500 0 -3500 0 0
-3500z m4580 1646 c480 -68 731 -226 902 -567 78 -157 123 -326 155 -579 14
-118 18 -220 18 -550 -1 -429 -11 -582 -56 -805 -43 -213 -142 -446 -253 -591
-132 -174 -343 -295 -618 -355 -203 -44 -304 -49 -1045 -49 l-703 0 0 1761 0
1760 738 -3 c639 -4 754 -7 862 -22z m-2687 -896 c72 -27 131 -72 179 -135
132 -174 110 -455 -47 -592 -22 -20 -69 -50 -105 -67 -62 -30 -71 -31 -190
-31 -121 0 -127 1 -191 32 -87 43 -178 138 -210 220 -31 80 -37 219 -14 299
42 145 147 247 298 289 73 21 205 14 280 -15z"/>
<path d="M3690 3409 l0 -1141 338 5 c374 4 401 8 542 75 192 91 289 267 335
612 20 145 24 789 6 955 -31 289 -128 479 -284 555 -126 61 -287 80 -674 80
l-263 0 0 -1141z"/>
</g>
</svg>
