<?xml version="1.0" standalone="no"?>
<!DOCTYPE svg PUBLIC "-//W3C//DTD SVG 20010904//EN"
 "http://www.w3.org/TR/2001/REC-SVG-20010904/DTD/svg10.dtd">
<svg version="1.0" xmlns="http://www.w3.org/2000/svg"
 width="700.000000pt" height="700.000000pt" viewBox="0 0 700.000000 700.000000"
 preserveAspectRatio="xMidYMid meet">
<metadata>
Created by potrace 1.11, written by Peter Selinger 2001-2013
</metadata>
<g transform="translate(0.000000,700.000000) scale(0.100000,-0.100000)"
fill="#000000" stroke="none">
<path d="M0 3511 l0 -1849 3500 0 3500 0 0 1849 0 1849 -3500 0 -3500 0 0
-1849z m1821 945 c6 -23 13 -51 15 -63 4 -19 104 -433 170 -698 13 -55 26
-109 28 -120 12 -53 125 -509 125 -503 1 3 8 34 17 67 8 34 17 69 19 78 2 10
15 64 29 120 14 56 28 112 30 125 3 13 44 183 91 378 48 195 88 362 90 370 2
8 8 35 15 60 14 52 19 75 26 112 3 15 11 47 18 70 l12 43 339 0 340 0 0 -973
c0 -536 -2 -978 -5 -983 -3 -5 -93 -8 -200 -6 l-195 2 0 758 0 757 -22 0 c-17
0 -24 -8 -32 -37 -21 -80 -54 -203 -88 -328 -19 -71 -46 -173 -60 -225 -13
-52 -69 -261 -124 -464 -54 -203 -99 -370 -99 -373 0 -2 -91 -2 -201 -1 l-202
3 -12 45 c-7 25 -27 97 -43 160 -34 127 -153 569 -256 950 -36 135 -66 251
-66 258 0 7 -11 12 -25 12 l-25 0 0 -759 0 -760 -200 1 -200 1 0 977 c0 537 2
979 5 982 3 2 156 5 340 5 l335 0 11 -41z m2249 38 c13 -3 15 -120 14 -976 -1
-535 -2 -976 -3 -981 0 -4 -90 -7 -198 -6 l-198 1 1 976 c1 538 2 980 3 983 1
7 357 10 381 3z m1400 -7 c14 -3 54 -11 89 -17 237 -42 385 -170 460 -397 16
-48 32 -104 35 -123 2 -19 7 -55 11 -80 14 -99 21 -428 11 -540 -3 -25 -8 -79
-11 -120 -15 -163 -77 -340 -156 -445 -85 -113 -230 -187 -434 -220 -56 -9
-885 -16 -886 -7 -3 17 -5 1948 -2 1954 4 7 846 3 883 -5z m-4803 -490 c144
-53 190 -273 82 -387 -91 -95 -228 -99 -330 -8 -40 36 -54 64 -66 140 -17 110
52 229 151 260 34 10 129 7 163 -5z"/>
<path d="M4984 3516 l0 -636 168 0 c181 0 245 9 325 46 79 38 150 140 167 242
23 132 26 183 22 412 -4 267 -6 294 -36 374 -25 64 -56 108 -96 135 -65 45
-117 54 -339 58 l-211 5 0 -636z"/>
</g>
</svg>
